<?xml version="1.0" encoding="utf-8" standalone="yes"?> <svg width="1023" height="1023" viewBox="-1 -1 31 31" xmlns="http://www.w3.org/2000/svg" xmlns:xlink="http://www.w3.org/1999/xlink" shape-rendering="crispEdges" id="qr code"><rect id="qr background" fill-opacity="1" fill="rgb(255, 255, 255)" x="-1" y="-1" width="31" height="31"></rect><path fill-opacity="1" fill="rgb(0, 0, 0)" id="qr dark pixels" fill-rule="evenodd" d="M 9 0 L 11 0 L 11 1 L 9 1 z M 12 0 L 13 0 L 13 1 L 14 1 L 14 2 L 11 2 L 11 1 L 12 1 z M 14 0 L 16 0 L 16 2 L 15 2 L 15 1 L 14 1 z M 17 0 L 20 0 L 20 1 L 18 1 L 18 2 L 19 2 L 19 3 L 20 3 L 20 2 L 21 2 L 21 4 L 18 4 L 18 3 L 16 3 L 16 2 L 17 2 z M 8 1 L 9 1 L 9 2 L 11 2 L 11 4 L 9 4 L 9 3 L 8 3 z M 14 3 L 16 3 L 16 4 L 17 4 L 17 7 L 16 7 L 16 6 L 15 6 L 15 5 L 14 5 z M 8 4 L 9 4 L 9 5 L 10 5 L 10 6 L 9 6 L 9 7 L 10 7 L 10 8 L 8 8 z M 11 4 L 13 4 L 13 5 L 11 5 z M 18 5 L 20 5 L 20 6 L 19 6 L 19 8 L 17 8 L 17 7 L 18 7 z M 10 6 L 11 6 L 11 7 L 10 7 z M 12 6 L 13 6 L 13 8 L 14 8 L 14 6 L 15 6 L 15 7 L 16 7 L 16 8 L 17 8 L 17 9 L 15 9 L 15 10 L 14 10 L 14 13 L 13 13 L 13 14 L 12 14 L 12 13 L 11 13 L 11 11 L 12 11 L 12 9 L 11 9 L 11 11 L 9 11 L 9 10 L 10 10 L 10 8 L 11 8 L 11 7 L 12 7 z M 20 6 L 21 6 L 21 7 L 20 7 z M 0 8 L 2 8 L 2 9 L 3 9 L 3 8 L 4 8 L 4 11 L 3 11 L 3 10 L 2 10 L 2 11 L 1 11 L 1 9 L 0 9 z M 6 8 L 8 8 L 8 11 L 9 11 L 9 12 L 8 12 L 8 13 L 5 13 L 5 14 L 3 14 L 3 12 L 4 12 L 4 11 L 5 11 L 5 9 L 6 9 L 6 10 L 7 10 L 7 9 L 6 9 zM 6 11 L 7 11 L 7 12 L 6 12 z M 19 8 L 20 8 L 20 9 L 19 9 z M 22 8 L 25 8 L 25 9 L 23 9 L 23 10 L 24 10 L 24 11 L 22 11 L 22 10 L 20 10 L 20 9 L 22 9 z M 26 8 L 28 8 L 28 9 L 26 9 z M 17 9 L 18 9 L 18 10 L 20 10 L 20 11 L 17 11 z M 25 9 L 26 9 L 26 10 L 28 10 L 28 12 L 29 12 L 29 13 L 27 13 L 27 12 L 26 12 L 26 11 L 25 11 z M 28 9 L 29 9 L 29 10 L 28 10 z M 0 11 L 1 11 L 1 13 L 2 13 L 2 14 L 0 14 z M 17 12 L 19 12 L 19 13 L 17 13 z M 20 12 L 24 12 L 24 13 L 22 13 L 22 14 L 24 14 L 24 15 L 21 15 L 21 14 L 19 14 L 19 13 L 20 13 z M 25 12 L 26 12 L 26 13 L 25 13 z M 9 13 L 11 13 L 11 14 L 9 14 z M 14 13 L 15 13 L 15 15 L 14 15 z M 2 14 L 3 14 L 3 15 L 6 15 L 6 16 L 4 16 L 4 17 L 6 17 L 6 18 L 8 18 L 8 19 L 5 19 L 5 18 L 4 18 L 4 19 L 3 19 L 3 18 L 2 18 z M 6 14 L 7 14 L 7 15 L 6 15 z M 8 14 L 9 14 L 9 15 L 8 15 z M 11 14 L 12 14 L 12 15 L 14 15 L 14 16 L 13 16 L 13 20 L 12 20 L 12 21 L 11 21 L 11 20 L 9 20 L 9 21 L 11 21 L 11 22 L 9 22 L 9 23 L 8 23 L 8 21 L 6 21 L 6 20 L 8 20 L 8 19 L 9 19 L 9 18 L 10 18 L 10 17 L 9 17 L 9 18 L 8 18 L 8 16 L 11 16 L 11 17 L 12 17 L 12 16 L 11 16 zM 11 18 L 12 18 L 12 19 L 11 19 z M 25 14 L 29 14 L 29 15 L 28 15 L 28 17 L 27 17 L 27 15 L 26 15 L 26 16 L 25 16 z M 15 15 L 16 15 L 16 17 L 15 17 L 15 18 L 14 18 L 14 16 L 15 16 z M 17 15 L 18 15 L 18 18 L 16 18 L 16 17 L 17 17 z M 20 15 L 21 15 L 21 16 L 22 16 L 22 17 L 21 17 L 21 18 L 22 18 L 22 17 L 23 17 L 23 16 L 24 16 L 24 18 L 25 18 L 25 19 L 24 19 L 24 20 L 23 20 L 23 19 L 22 19 L 22 20 L 21 20 L 21 19 L 20 19 z M 0 16 L 1 16 L 1 17 L 0 17 z M 6 16 L 7 16 L 7 17 L 6 17 z M 25 17 L 26 17 L 26 18 L 25 18 z M 28 17 L 29 17 L 29 20 L 27 20 L 27 18 L 28 18 z M 0 18 L 1 18 L 1 19 L 0 19 z M 18 18 L 19 18 L 19 20 L 17 20 L 17 19 L 18 19 z M 4 19 L 5 19 L 5 21 L 4 21 z M 14 19 L 16 19 L 16 20 L 15 20 L 15 21 L 14 21 L 14 22 L 13 22 L 13 23 L 15 23 L 15 24 L 14 24 L 14 25 L 13 25 L 13 26 L 12 26 L 12 25 L 11 25 L 11 26 L 12 26 L 12 27 L 9 27 L 9 26 L 10 26 L 10 24 L 11 24 L 11 23 L 12 23 L 12 21 L 13 21 L 13 20 L 14 20 z M 0 20 L 1 20 L 1 21 L 0 21 z M 2 20 L 3 20 L 3 21 L 2 21 z M 19 20 L 20 20 L 20 22 L 19 22 z M 26 20 L 27 20 L 27 21 L 29 21 L 29 22 L 28 22 L 28 23 L 29 23 L 29 25 L 28 25 L 28 24 L 25 24 L 25 23 L 27 23 L 27 22 L 26 22 z M 16 21 L 17 21 L 17 22 L 18 22 L 18 23 L 16 23 z M 18 23 L 19 23 L 19 25 L 17 25 L 17 24 L 18 24 z M 8 25 L 9 25 L 9 26 L 8 26 z M 14 25 L 15 25 L 15 26 L 14 26 z M 19 25 L 21 25 L 21 26 L 19 26 z M 22 25 L 27 25 L 27 27 L 25 27 L 25 28 L 22 28 L 22 29 L 20 29 L 20 28 L 18 28 L 18 29 L 17 29 L 17 27 L 24 27 L 24 26 L 22 26 z M 13 26 L 14 26 L 14 28 L 13 28 L 13 29 L 11 29 L 11 28 L 12 28 L 12 27 L 13 27 z M 16 26 L 17 26 L 17 27 L 16 27 z M 28 26 L 29 26 L 29 27 L 28 27 z M 8 27 L 9 27 L 9 29 L 8 29 z M 27 27 L 28 27 L 28 29 L 27 29 z"></path><path id="qr squares" d="M0,0h7h0v0v7v0h0h-7h0v0v-7v0h0zM1,1h5h0v0v5v0h0h-5h0v0v-5v0h0zM2,2h3h0v0v3v0h0h-3h0v0v-3v0h0z M22,0h7h0v0v7v0h0h-7h0v0v-7v0h0zM23,1h5h0v0v5v0h0h-5h0v0v-5v0h0zM24,2h3h0v0v3v0h0h-3h0v0v-3v0h0z M0,22h7h0v0v7v0h0h-7h0v0v-7v0h0zM1,23h5h0v0v5v0h0h-5h0v0v-5v0h0zM2,24h3h0v0v3v0h0h-3h0v0v-3v0h0zM20,20h5h0v0v5v0h0h-5h0v0v-5v0h0zM21,21h3h0v0v3v0h0h-3h0v0v-3v0h0zM22,22h1h0v0v1v0h0h-1h0v0v-1v0h0z" fill-rule="evenodd" fill-opacity="1" fill="rgb(0, 0, 0)"></path></svg>